<?xml version="1.0" encoding="utf-8"?>
<!-- Generator: Adobe Illustrator 27.2.0, SVG Export Plug-In . SVG Version: 6.00 Build 0)  -->
<svg version="1.1" id="Layer_1" xmlns="http://www.w3.org/2000/svg" xmlns:xlink="http://www.w3.org/1999/xlink" x="0px" y="0px"
	 viewBox="0 0 800 800" style="enable-background:new 0 0 800 800;" xml:space="preserve">
<style type="text/css">
	.st0{fill-rule:evenodd;clip-rule:evenodd;}
</style>
<path class="st0" d="M100,233.3c0-18.4,14.9-33.3,33.3-33.3h533.3c18.4,0,33.3,14.9,33.3,33.3s-14.9,33.3-33.3,33.3H133.3
	C114.9,266.7,100,251.7,100,233.3z M200,400c0-18.4,14.9-33.3,33.3-33.3h333.3c18.4,0,33.3,14.9,33.3,33.3s-14.9,33.3-33.3,33.3
	H233.3C214.9,433.3,200,418.4,200,400z M300,566.7c0-18.4,14.9-33.3,33.3-33.3h133.3c18.4,0,33.3,14.9,33.3,33.3
	S485.1,600,466.7,600H333.3C314.9,600,300,585.1,300,566.7z"/>
</svg>
